<?xml version="1.0" encoding="utf-8"?>
<svg xmlns="http://www.w3.org/2000/svg"
	xmlns:xlink="http://www.w3.org/1999/xlink"
	width="172px" height="196px" viewBox="0 0 43 49">
<path fillRule="evenodd" d="M-0 49C-0 49-0 13-0 13-0 13 43 13 43 13 43 13 43 49 43 49 43 49-0 49-0 49ZM 40 16C 40 16 3 16 3 16 3 16 3 46 3 46 3 46 40 46 40 46 40 46 40 16 40 16ZM 22.99-0.02C 22.99-0.02 31.6-0.02 31.6-0.02 31.6-0.02 39 10 39 10 39 10 22.99 10.01 22.99 10.01 22.99 10.01 22.99-0.02 22.99-0.02ZM 11.4 0.02C 11.4 0.02 20.01 0.02 20.01 0.02 20.01 0.02 20.01 10.01 20.01 10.01 20.01 10.01 4 10 4 10 4 10 11.4 0.02 11.4 0.02Z" fill="rgb(3,153,197)"/><path fillRule="evenodd" d="M 29 33.06C 29 33.06 23.45 38.93 23.45 38.93 23.45 38.93 23.47 38.95 23.47 38.95 23.47 38.95 21.5 41 21.5 41 21.5 41 19.53 38.95 19.53 38.95 19.53 38.95 19.55 38.93 19.55 38.93 19.55 38.93 14 33.06 14 33.06 14 33.06 15.97 31 15.97 31 15.97 31 20 35.27 20 35.27 20 35.27 20 22 20 22 20 22 23 22 23 22 23 22 23 35.27 23 35.27 23 35.27 27.03 31 27.03 31 27.03 31 29 33.06 29 33.06Z" fill="rgb(255,255,255)"/></svg>