<?xml version="1.0" encoding="utf-8"?>
<svg xmlns="http://www.w3.org/2000/svg"
	xmlns:xlink="http://www.w3.org/1999/xlink"
	width="216px" height="176px" viewBox="0 0 54 44">
<path fillRule="evenodd" d="M 0 44C 0 44 0 25 0 25 0 25 3 25 3 25 3 25 3 41 3 41 3 41 42 41 42 41 42 41 42 25 42 25 42 25 45 25 45 25 45 25 45 44 45 44 45 44 0 44 0 44ZM 11.5 33.01C 11.96 32.4 12.68 32 13.5 32 14.88 32 16 33.12 16 34.5 16 35.88 14.88 37 13.5 37 12.68 37 11.96 36.6 11.5 35.99 11.04 36.6 10.32 37 9.5 37 8.12 37 7 35.88 7 34.5 7 33.12 8.12 32 9.5 32 10.32 32 11.04 32.4 11.5 33.01ZM 0 18C 0 18 30.89 18 30.89 18 32.08 20.06 33.78 21.78 35.82 23 35.82 23 0 23 0 23 0 23 0 18 0 18ZM 29.05 12C 29.05 12 3 12 3 12 3 12 3 16 3 16 3 16 0 16 0 16 0 16 0 9 0 9 0 9 29.16 9 29.16 9 29.07 9.65 29 10.32 29 11 29 11.34 29.03 11.67 29.05 12Z" fill="rgb(3,152,196)"/><path fillRule="evenodd" d="M 43 22C 36.92 22 32 17.08 32 11 32 4.92 36.92 0 43 0 49.08 0 54 4.92 54 11 54 17.08 49.08 22 43 22ZM 46.71 13.28C 46.71 13.28 44 10.57 44 10.57 44 10.57 44 4 44 4 44 3.45 43.55 3 43 3 42.45 3 42 3.45 42 4 42 4 42 10.97 42 10.97 41.99 11.24 42.08 11.51 42.29 11.72 42.29 11.72 45.28 14.71 45.28 14.71 45.68 15.1 46.32 15.1 46.71 14.71 47.1 14.32 47.1 13.68 46.71 13.28Z" fill="rgb(255,255,255)"/></svg>