<?xml version="1.0" encoding="utf-8"?>
<svg xmlns="http://www.w3.org/2000/svg"
	xmlns:xlink="http://www.w3.org/1999/xlink"
	width="176px" height="192px" viewBox="0 0 44 48">
<path fillRule="evenodd" d="M 43.4 23.03C 43.4 23.03 40.42 23.03 40.42 23.03 40.42 23.03 40.11 15.57 40.11 15.57 40.11 15.23 39.82 14.96 39.46 14.96 39.46 14.96 38.75 14.96 38.75 14.96 38.75 14.96 38.44 14 38.44 14 38.44 14 43.38 14 43.38 14 43.72 14 44 14.26 44 14.6 44 14.6 44 22.44 44 22.44 44 22.76 43.73 23.03 43.4 23.03ZM 39 27C 40.1 27 41 27.91 41 29 41 29 41 37 41 37 41 37 24 37 24 37 24 37 20 37 20 37 20 37 3 37 3 37 3 37 3 29 3 29 3 27.91 3.9 27 5 27 5 27 5 22 5 22 5 22 6.17 14.94 6.17 14.94 6.49 13.87 7.06 12.97 8.16 12.97 8.16 12.97 16.84 12.97 16.84 12.97 16.84 12.97 20 12.97 20 12.97 20 12.97 24 12.97 24 12.97 24 12.97 27.16 12.97 27.16 12.97 27.16 12.97 35.84 12.97 35.84 12.97 36.94 12.97 37.51 13.87 37.83 14.94 37.83 14.94 39 22 39 22 39 22 39 27 39 27ZM 14 35C 14 35 20 35 20 35 20 35 24 35 24 35 24 35 30 35 30 35 30 35 30 27 30 27 30 25.91 29.1 25 28 25 28 25 24 25 24 25 24 25 20 25 20 25 20 25 16 25 16 25 14.9 25 14 25.91 14 27 14 27 14 35 14 35ZM 5 32.41C 5 32.41 5 33.61 5 33.61 5 33.83 5.16 34.01 5.36 34.01 5.36 34.01 10.64 34.01 10.64 34.01 10.84 34.01 11.01 33.83 11.01 33.61 11.01 33.61 11.01 32.41 11.01 32.41 11.01 32.19 10.84 32.01 10.64 32.01 10.64 32.01 5.36 32.01 5.36 32.01 5.16 32.01 5 32.19 5 32.41ZM 37 15C 37 14.56 36.44 14 36 14 36 14 24 14 24 14 24 14 20 14 20 14 20 14 8 14 8 14 7.56 14 7 14.56 7 15 7 15 6 22 6 22 6 22.44 6.56 23 7 23 7 23 20 23 20 23 20 23 24 23 24 23 24 23 37 23 37 23 37.44 23 38 22.44 38 22 38 22 37 15 37 15ZM 38.64 32.01C 38.64 32.01 33.36 32.01 33.36 32.01 33.16 32.01 32.99 32.19 32.99 32.41 32.99 32.41 32.99 33.61 32.99 33.61 32.99 33.83 33.16 34.01 33.36 34.01 33.36 34.01 38.64 34.01 38.64 34.01 38.84 34.01 39 33.83 39 33.61 39 33.61 39 32.41 39 32.41 39 32.19 38.84 32.01 38.64 32.01ZM 15 22C 15 22 16 15 16 15 16 15 17 15 17 15 17 15 16 22 16 22 16 22 15 22 15 22ZM 10 22C 10 22 11 15 11 15 11 15 14 15 14 15 14 15 13 22 13 22 13 22 10 22 10 22ZM 4.54 14.96C 4.18 14.96 3.89 15.23 3.89 15.57 3.89 15.57 3.58 23.03 3.58 23.03 3.58 23.03 0.6 23.03 0.6 23.03 0.27 23.03 0 22.76 0 22.44 0 22.44 0 14.6 0 14.6 0 14.26 0.28 14 0.62 14 0.62 14 5.56 14 5.56 14 5.56 14 5.25 14.96 5.25 14.96 5.25 14.96 4.54 14.96 4.54 14.96ZM 24 38C 24 38 42 38 42 38 42 38 42 42 42 42 42 42 30 44 30 44 30 44 24 44 24 44 24 44 20 44 20 44 20 44 14 44 14 44 14 44 2 42 2 42 2 42 2 38 2 38 2 38 20 38 20 38 20 38 24 38 24 38ZM 4 44C 4 44 11 45 11 45 11 45 10.99 47.19 10.99 47.19 10.99 47.64 10.62 48 10.17 48 10.17 48 3.83 48 3.83 48 3.37 48 3.01 47.64 3.01 47.19 3.01 47.19 3 45 3 45 3 44.46 3.39 44 4 44ZM 41 45C 41 45 40.99 47.19 40.99 47.19 40.99 47.64 40.63 48 40.17 48 40.17 48 33.83 48 33.83 48 33.38 48 33.01 47.64 33.01 47.19 33.01 47.19 33 45 33 45 33 45 40 44 40 44 40.61 44 41 44.46 41 45Z" fill="rgb(255,255,255)"/><path fillRule="evenodd" d="M 33 7C 33 7 33.73 5.44 33.73 5.44 34 4.42 32.55 3.78 32 4.78 32 4.78 31 7 31 7 31 7 31 12 31 12 31 12 24 12 24 12 24 12 20 12 20 12 20 12 13 12 13 12 13 12 13 7 13 7 13 7 12 4.78 12 4.78 11.45 3.78 10 4.42 10.27 5.44 10.27 5.44 11 7 11 7 11 7 11 12 11 12 11 12 7 12 7 12 7 12 5 13 5 13 5 13 5 2 5 2 5 0.91 5.9 0 7 0 7 0 20 0 20 0 20 0 24 0 24 0 24 0 37 0 37 0 38.1 0 39 0.91 39 2 39 2 39 13 39 13 39 13 37 12 37 12 37 12 33 12 33 12 33 12 33 7 33 7Z" fill="rgb(3,153,197)"/></svg>