<?xml version="1.0" encoding="utf-8"?>
<svg xmlns="http://www.w3.org/2000/svg"
	xmlns:xlink="http://www.w3.org/1999/xlink"
	width="56px" height="56px" viewBox="0 0 14 14">
<path fillRule="evenodd" d="M 13.78 13.78C 13.48 14.08 12.99 14.08 12.69 13.78 12.69 13.78 9.92 11 9.92 11 7.5 12.88 4.02 12.73 1.81 10.52-0.6 8.11-0.6 4.21 1.81 1.81 4.21-0.6 8.11-0.6 10.52 1.81 12.73 4.03 12.88 7.5 11 9.92 11 9.92 13.78 12.69 13.78 12.69 14.08 12.99 14.08 13.48 13.78 13.78ZM 9.43 2.9C 7.62 1.09 4.7 1.09 2.9 2.9 1.09 4.7 1.09 7.62 2.9 9.43 4.7 11.23 7.62 11.23 9.43 9.43 11.23 7.62 11.23 4.7 9.43 2.9Z" fill="rgb(255,255,255)"/></svg>