<?xml version="1.0" encoding="utf-8"?>
<svg xmlns="http://www.w3.org/2000/svg"
	xmlns:xlink="http://www.w3.org/1999/xlink"
	width="56px" height="68px" viewBox="0 0 14 17">
<path fillRule="evenodd" d="M 12.43 17C 12.02 13.74 9.95 12.5 7 12.5 4.05 12.5 1.98 13.74 1.57 17 1.57 17-0.01 17-0.01 17 0.51 12.93 3.4 11 7 11 10.6 11 13.49 12.93 14 17 14 17 12.43 17 12.43 17ZM 7 9.99C 4.23 9.99 1.99 7.75 1.99 4.99 1.99 2.24 4.23 0 7 0 9.77 0 12.01 2.24 12.01 4.99 12.01 7.75 9.77 9.99 7 9.99ZM 7 1.66C 5.15 1.66 3.66 3.16 3.66 4.99 3.66 6.83 5.15 8.32 7 8.32 8.85 8.32 10.34 6.83 10.34 4.99 10.34 3.16 8.85 1.66 7 1.66Z" fill="rgb(3,153,197)"/></svg>